<?xml version="1.0" standalone="no"?>
<!DOCTYPE svg PUBLIC "-//W3C//DTD SVG 20010904//EN"
 "http://www.w3.org/TR/2001/REC-SVG-20010904/DTD/svg10.dtd">
<svg version="1.0" xmlns="http://www.w3.org/2000/svg"
 width="1726.000000pt" height="595.000000pt" viewBox="0 0 1726.000000 595.000000"
 preserveAspectRatio="xMidYMid meet">

<g transform="translate(0.000000,595.000000) scale(0.100000,-0.100000)"
fill="#000000" stroke="none">
<path d="M3180 4641 c0 -3 -38 -190 -85 -416 -112 -538 -172 -828 -195 -945
-124 -626 -223 -1102 -235 -1130 -8 -19 -19 -64 -25 -100 -6 -36 -60 -313
-121 -616 -60 -304 -109 -555 -109 -559 0 -13 28 4 166 102 284 202 1099 779
1211 857 40 28 75 58 78 66 7 23 265 1379 395 2080 28 151 54 285 57 298 4 18
1 22 -18 22 -32 0 -139 33 -139 42 0 4 -12 8 -27 8 -16 0 -47 7 -71 15 -24 9
-47 13 -52 10 -4 -3 -10 -2 -12 3 -4 11 -108 43 -119 36 -5 -3 -9 -1 -9 3 0 5
-20 15 -45 22 -25 7 -45 17 -45 22 0 5 -12 9 -27 9 -16 0 -47 7 -71 15 -24 9
-47 13 -52 10 -4 -3 -10 -2 -12 3 -4 11 -108 43 -119 36 -5 -3 -9 -1 -9 4 0 4
-22 15 -50 22 -27 7 -50 17 -50 20 0 4 -14 7 -32 8 -17 0 -34 6 -38 13 -4 6
-12 9 -18 5 -6 -3 -18 1 -27 10 -16 17 -95 37 -95 25z"/>
<path d="M1056 3787 c-576 -257 -680 -306 -688 -327 -22 -59 -88 -334 -103
-435 -26 -168 -31 -480 -11 -645 28 -223 94 -457 173 -614 44 -88 130 -218
177 -270 33 -35 39 -38 72 -32 19 4 44 16 56 28 11 11 31 21 44 22 13 0 24 5
24 9 0 4 6 7 13 5 21 -4 57 13 57 27 0 9 6 12 15 9 8 -4 15 -1 15 5 0 6 6 8
14 5 7 -3 20 1 27 8 8 7 20 13 27 14 27 2 32 5 32 17 0 6 14 13 32 14 17 1 35
8 39 15 5 7 14 13 21 14 33 3 38 5 38 19 0 9 6 12 15 9 8 -4 15 -1 15 6 0 6 4
9 9 6 14 -9 42 5 34 17 -4 6 -1 7 6 3 7 -5 19 0 27 10 11 14 17 15 20 7 7 -17
24 -16 24 1 0 20 26 38 54 39 14 0 27 6 30 13 3 8 12 11 19 8 8 -3 17 2 21 11
5 13 10 14 27 5 24 -13 41 -4 19 10 -12 8 -10 10 8 10 12 0 22 5 22 11 0 5 5
7 11 3 6 -3 14 -3 18 2 14 20 61 43 75 38 9 -3 16 -2 16 4 0 6 14 13 30 17 17
4 30 11 30 16 0 5 11 9 24 9 14 0 31 7 40 15 8 8 22 15 30 15 9 0 16 4 16 10
0 5 16 12 36 16 19 4 38 13 41 20 3 8 13 14 24 14 10 0 22 6 26 13 4 8 23 17
41 20 18 4 40 14 48 22 9 8 26 15 40 15 13 0 24 5 24 10 0 6 6 10 13 10 6 0
32 10 57 22 47 23 52 25 85 28 11 1 -38 16 -110 34 -218 55 -341 120 -443 231
-105 115 -147 252 -139 455 4 107 16 176 80 475 42 193 92 427 112 520 19 94
37 180 40 193 3 12 2 22 -2 22 -5 -1 -314 -137 -687 -303z"/>
<path d="M2005 2070 c-3 -5 -1 -10 4 -10 6 0 11 5 11 10 0 6 -2 10 -4 10 -3 0
-8 -4 -11 -10z"/>
<path d="M1915 2030 c-3 -5 -1 -10 4 -10 6 0 11 5 11 10 0 6 -2 10 -4 10 -3 0
-8 -4 -11 -10z"/>
<path d="M1560 1870 c0 -5 5 -10 10 -10 6 0 10 5 10 10 0 6 -4 10 -10 10 -5 0
-10 -4 -10 -10z"/>
<path d="M1310 1750 c0 -5 5 -10 10 -10 6 0 10 5 10 10 0 6 -4 10 -10 10 -5 0
-10 -4 -10 -10z"/>
</g>
</svg>
