<?xml version="1.0" standalone="no"?>
<!DOCTYPE svg PUBLIC "-//W3C//DTD SVG 20010904//EN"
 "http://www.w3.org/TR/2001/REC-SVG-20010904/DTD/svg10.dtd">
<svg version="1.0" xmlns="http://www.w3.org/2000/svg"
 width="224.000000pt" height="225.000000pt" viewBox="0 0 224.000000 225.000000"
 preserveAspectRatio="xMidYMid meet">

<g transform="translate(0.000000,225.000000) scale(0.100000,-0.100000)"
fill="#000000" stroke="none">
<path d="M885 1841 l-190 -108 -2 -234 -3 -234 166 -95 c258 -148 227 -135
273 -110 30 17 40 30 44 54 2 17 7 38 11 48 5 11 1 18 -13 23 -12 3 -26 15
-32 27 -9 16 -48 279 -49 326 0 7 -14 12 -39 12 -44 0 -91 31 -91 60 0 12 -22
30 -65 55 -36 20 -65 39 -65 43 1 11 250 154 263 150 22 -5 256 -143 257 -150
0 -4 -30 -24 -67 -44 -38 -21 -70 -39 -71 -40 -2 -1 -1 -16 3 -33 l7 -31 134
0 134 0 0 84 0 85 -195 110 c-107 61 -201 111 -208 111 -6 0 -97 -49 -202
-109z m43 -294 l122 -71 0 -163 c0 -90 -3 -163 -7 -163 -5 0 -69 36 -143 79
l-135 79 -3 58 c-2 33 -1 105 3 162 6 90 9 103 24 97 9 -3 71 -38 139 -78z"/>
<path d="M1001 1636 c-23 -28 -2 -46 54 -46 41 0 54 -4 60 -17 3 -10 15 -87
26 -172 11 -85 24 -162 29 -171 13 -24 60 -29 235 -24 165 4 195 8 195 27 0
32 -24 37 -192 37 -155 0 -168 1 -178 19 -5 11 -10 24 -10 30 0 6 74 11 200
13 210 3 237 9 214 46 -10 15 -35 17 -218 20 -168 2 -206 5 -206 16 0 8 -3 21
-6 30 -5 14 21 16 232 18 227 3 239 4 242 22 8 41 -19 46 -259 46 l-227 0 -6
30 c-3 17 -9 44 -12 60 l-6 30 -78 0 c-53 0 -81 -4 -89 -14z"/>
<path d="M1442 1154 c-27 -18 -29 -55 -4 -77 26 -24 59 -21 77 7 24 36 -2 86
-44 86 -3 0 -17 -7 -29 -16z"/>
<path d="M1222 1148 c-15 -15 -15 -61 0 -76 7 -7 24 -12 38 -12 33 0 50 17 50
50 0 14 -5 31 -12 38 -15 15 -61 15 -76 0z"/>
<path d="M167 924 c-4 -4 -7 -73 -7 -153 0 -80 -5 -163 -10 -183 -15 -51 -62
-97 -111 -104 -33 -6 -39 -10 -39 -30 0 -21 5 -24 35 -24 39 0 101 28 126 56
45 52 50 76 47 261 -3 151 -5 178 -18 181 -9 1 -19 0 -23 -4z"/>
<path d="M396 908 c-36 -55 -167 -341 -162 -354 12 -31 42 -14 66 36 26 55 12
50 151 52 l61 0 29 -51 c29 -50 62 -68 71 -39 7 19 -168 373 -185 376 -9 2
-23 -7 -31 -20z m84 -195 c0 -9 -18 -13 -60 -13 -33 0 -60 2 -60 5 0 3 14 33
31 67 l31 62 29 -54 c15 -30 28 -61 29 -67z"/>
<path d="M676 918 c-3 -7 -7 -86 -10 -176 -4 -133 -8 -168 -22 -190 -26 -40
-55 -60 -97 -67 -43 -8 -59 -32 -33 -50 41 -31 151 27 185 98 20 41 21 58 19
218 -3 156 -5 174 -21 177 -9 2 -19 -2 -21 -10z"/>
<path d="M876 916 c-43 -16 -91 -58 -112 -98 -21 -40 -18 -131 6 -177 48 -96
171 -134 266 -83 38 20 93 90 100 127 29 155 -116 284 -260 231z m145 -69 c43
-29 59 -60 59 -119 0 -114 -140 -177 -229 -102 -53 44 -64 123 -25 181 40 63
134 82 195 40z"/>
<path d="M1296 915 c-153 -54 -169 -282 -25 -356 118 -59 260 6 289 134 12 55
-1 67 -73 67 -70 0 -91 -9 -85 -36 2 -15 14 -20 51 -22 29 -2 47 -8 47 -16 0
-14 -55 -69 -87 -85 -50 -26 -134 3 -165 57 -21 35 -23 106 -5 142 31 62 134
90 197 54 32 -20 63 -12 58 13 -4 24 -84 63 -128 63 -19 -1 -52 -7 -74 -15z"/>
<path d="M1602 918 c-18 -18 -16 -259 2 -303 44 -106 224 -97 256 13 6 21 10
91 8 161 -3 106 -6 125 -21 135 -30 18 -37 -10 -37 -149 0 -86 -5 -135 -13
-146 -20 -27 -56 -41 -88 -34 -52 12 -59 35 -59 186 0 116 -2 138 -16 143 -20
8 -18 8 -32 -6z"/>
<path d="M2033 918 c-13 -15 -125 -240 -155 -310 -16 -38 -18 -51 -8 -62 18
-22 35 -10 60 45 l23 49 97 0 97 0 23 -50 c18 -39 29 -50 47 -50 16 0 23 6 23
20 0 27 -169 364 -184 368 -7 2 -18 -3 -23 -10z m77 -205 c0 -9 -18 -13 -60
-13 -33 0 -60 2 -60 5 0 3 14 33 31 67 l31 62 29 -54 c15 -30 28 -61 29 -67z"/>
<path d="M1950 405 c0 -50 4 -85 10 -85 6 0 10 16 10 35 0 32 2 35 29 35 35 0
61 23 61 54 0 33 -19 46 -67 46 l-43 0 0 -85z m77 54 c18 -18 3 -39 -28 -39
-24 0 -29 4 -29 25 0 19 5 25 23 25 13 0 28 -5 34 -11z"/>
<path d="M2060 482 c0 -4 11 -24 25 -44 17 -25 25 -51 25 -78 0 -57 23 -48 30
11 3 24 13 59 23 77 24 44 12 55 -19 17 -23 -29 -24 -29 -38 -10 -9 11 -16 23
-16 28 0 9 -30 9 -30 -1z"/>
</g>
</svg>
